<?xml version="1.0" encoding="UTF-8" standalone="no"?>
<!-- Created with Inkscape (http://www.inkscape.org/) -->
<svg xmlns:svg="http://www.w3.org/2000/svg" xmlns="http://www.w3.org/2000/svg" xmlns:xlink="http://www.w3.org/1999/xlink" version="1.0" width="210mm" height="200mm" id="svg2">
  <defs id="defs4">
    <linearGradient id="linearGradient8675">
      <stop style="stop-color:#6abeff;stop-opacity:1" offset="0" id="stop8677"/>
      <stop style="stop-color:#1f79c8;stop-opacity:1" offset="1" id="stop8679"/>
    </linearGradient>
    <linearGradient id="linearGradient5900">
      <stop style="stop-color:#2f84e4;stop-opacity:1" offset="0" id="stop5902"/>
      <stop style="stop-color:#135aab;stop-opacity:1" offset="1" id="stop5904"/>
    </linearGradient>
    <linearGradient x1="-66.313347" y1="52.776123" x2="33.008533" y2="839.91895" id="linearGradient8686" xlink:href="#linearGradient5900" gradientUnits="userSpaceOnUse"/>
    <linearGradient x1="-196.31335" y1="56.01376" x2="-5.5628953" y2="795.63324" id="linearGradient8688" xlink:href="#linearGradient8675" gradientUnits="userSpaceOnUse" gradientTransform="translate(-7.972372,-6.128237)"/>
  </defs>
  <g id="layer1">
    <g transform="matrix(0.876536,0,0,0.876536,338.8497,-7.733969)" id="g8681">
      <path d="M 43.6672,25.61695 C 29.04537,24.97281 15.15159,30.591073 0.96014,33.401594 C -64.86048,50.47251 -131.62161,64.26819 -196.55155,84.49195 C -215.11931,91.89065 -234.5408,106.22978 -236.3953,127.67945 C -238.09462,147.81534 -223.90909,163.86333 -215.0828,180.5857 C -210.19872,191.11609 -208.68733,204.46246 -216.11365,214.1188 C -281.25639,340.09987 -321.23183,478.50582 -337.9578,619.17945 C -341.17105,639.92985 -353.63118,659.01123 -350.98905,680.61695 C -349.67898,701.1709 -333.89127,716.27141 -320.1453,729.8982 C -285.86519,762.13001 -248.27742,791.40173 -206.0203,812.49195 C -181.1029,820.53556 -149.82962,804.08436 -145.90792,777.49525 C -143.58633,746.41888 -148.36341,715.406 -148.96074,684.35152 C -149.73973,671.67559 -150.53201,658.97944 -150.2703,646.2732 C -104.17392,632.71572 -59.98231,612.52048 -13.3328,601.3982 C -6.91707,604.93961 -6.45536,613.43103 -2.9578,619.2732 C 8.44129,647.74435 15.91649,677.68241 26.32542,706.53867 C 34.9722,732.94526 41.6305,760.44091 55.31291,784.74177 C 64.64271,797.64102 78.7468,810.72907 95.9797,808.30445 C 111.24955,804.38213 118.38134,788.71919 129.45901,779.044 C 157.3786,748.53458 187.00693,719.34938 213.26095,687.49195 C 222.84654,669.6327 216.53729,648.52135 209.86382,630.92306 C 159.17135,464.20056 112.89451,294.81639 96.18427,120.83371 C 93.06484,96.32065 92.67162,70.72646 82.8547,47.7732 C 75.18485,33.89958 59.58199,24.860683 43.6672,25.61695 z M -72.73905,341.3357 C -68.07093,369.55038 -61.13922,397.2399 -54.9578,425.1482 C -71.69469,430.89704 -88.38116,436.81336 -105.30155,441.99195 C -96.92305,407.49731 -87.07207,373.28205 -72.8328,340.67945 L -72.73905,341.3357 z " style="fill:#020203" id="path1370"/>
      <path d="M -206.06489,798.83876 C -220.42625,791.82587 -257.11665,767.11097 -278.06489,750.33907 C -294.32134,737.32358 -306.03767,726.50897 -320.37924,711.28134 C -334.49575,696.29268 -337.73201,690.31794 -338.37556,678.05672 C -338.94713,667.16688 -337.5595,660.40048 -331.11879,642.67106 C -327.73597,633.35913 -325.59554,625.66647 -325.13655,621.17106 C -323.81914,608.26803 -319.52086,577.34434 -316.44929,558.67106 C -297.06223,440.80952 -257.85544,321.78018 -204.96012,220.197 L -197.34004,205.56297 L -198.04883,197.99918 C -199.45974,182.94266 -203.22513,173.14194 -213.49946,157.78365 C -216.66835,153.04673 -220.20145,146.9027 -221.35079,144.13025 C -229.53386,124.39106 -220.92126,109.86674 -193.12419,96.52877 C -185.93874,93.08095 -169.63619,88.74163 -76.41846,65.46469 C 27.50254,39.515087 32.34418,38.403967 41.9351,38.303527 C 50.36638,38.215227 52.71946,38.557087 56.9351,40.482777 C 67.74899,45.4225 74.92268,56.46182 77.85205,72.67106 C 78.69692,77.34606 80.55274,92.64606 81.97609,106.67106 C 94.70166,232.06299 116.12259,345.22631 151.8249,475.67106 C 164.99912,523.80542 199.56214,642.34524 202.87523,650.75694 C 205.49651,657.41221 206.53107,665.89208 205.43005,671.69773 C 203.77892,680.40414 200.76249,685.24317 190.91033,694.99066 C 185.80689,700.03988 163.34419,723.97106 140.99323,748.17106 C 118.64227,772.37106 98.95657,793.18356 97.24723,794.42106 C 93.22802,797.33082 90.01118,797.26077 83.72159,794.12653 C 77.55859,791.05538 65.06217,778.26613 61.28052,771.15959 C 59.82049,768.4159 48.43039,734.44606 35.96918,695.67106 C 10.53837,616.53916 10.7752,617.23159 5.31836,606.0547 C -2.22593,590.60225 -8.15232,586.34456 -18.90652,588.65088 C -21.74363,589.25932 -51.06489,599.1138 -84.06489,610.54972 C -117.06489,621.98564 -147.75966,632.37375 -152.2755,633.63441 C -156.79133,634.89507 -161.23577,636.75489 -162.15201,637.76733 C -163.70812,639.48681 -163.61104,643.71301 -160.67906,701.8896 C -158.95269,736.1444 -157.54575,767.12021 -157.55254,770.72472 C -157.56794,778.89893 -160.68997,785.6881 -167.1878,791.67759 C -174.25914,798.19572 -181.45089,801.08002 -191.56489,801.45419 C -199.27806,801.73955 -200.6203,801.49744 -206.06489,798.83876 z M -80.56489,447.18942 C -58.83989,440.17777 -40.72165,434.127 -40.30214,433.74326 C -39.88263,433.35953 -42.21051,422.4988 -45.47522,409.60831 C -54.56294,373.72601 -61.36138,337.49333 -64.67701,307.27136 C -66.03733,294.87202 -66.03474,294.87217 -72.11452,306.83235 C -87.39639,336.89494 -104.58836,386.63138 -117.11785,437.02718 C -122.05066,456.8678 -122.76533,461.45647 -120.74579,460.32078 C -120.3713,460.11018 -102.28989,454.20107 -80.56489,447.18942 z " style="fill:url(#linearGradient8686);fill-opacity:1" id="path1372"/>
      <path d="M 36.718749,49.915179 C -10.282181,56.691137 -55.536592,72.457922 -101.9375,82.352683 C -136.54544,91.024253 -172.02995,97.939344 -204.625,112.57143 C -211.01871,116.10191 -216.93276,124.57531 -212.09584,131.64237 C -204.65296,147.09209 -192.25044,160.44568 -189.81903,177.97045 C -185.79335,192.39929 -187.12441,208.8385 -196.30301,221.06184 C -262.16891,347.25938 -300.61778,486.75852 -317.40625,627.91518 C -321.29076,644.14067 -332.51665,660.78473 -326.65625,677.85268 C -313.40052,699.36956 -292.18079,714.15938 -273.625,730.82143 C -250.90056,748.85236 -227.06098,766.85308 -199.96875,777.79018 C -189.65522,777.87533 -180.15724,766.97428 -183.5625,756.82143 C -184.84162,713.32076 -190.75668,669.77379 -187.375,626.25893 C -181.68136,612.68893 -165.37934,610.39196 -153.0625,606.32143 C -108.68168,592.64747 -65.984832,573.09072 -20.312502,563.85268 C -1.0285914,565.3067 11.941118,583.43984 17.082428,600.6592 C 36.952922,650.91818 49.043112,704.0804 69.093749,754.16518 C 72.250795,760.2412 75.871191,766.43512 81.781249,770.13393 C 113.43338,735.30249 147.35741,702.62606 177.375,666.41518 C 181.81364,660.58074 178.42807,652.25249 176.91651,645.83695 C 169.07077,625.44108 164.16143,603.78775 157.40631,582.85017 C 113.8417,436.74412 76.278165,287.89981 59.592973,136.18503 C 56.333842,110.08348 55.579706,83.387783 48.499999,58.040179 C 46.203856,53.739661 41.998079,49.488408 36.718749,49.915179 z M -67.919645,270.99554 C -63.028463,278.06069 -60.389379,288.67912 -57.419645,302.375 C -54.962246,343.19565 -39.794185,392.33667 -31.928573,434.16964 C -33.811163,446.5557 -37.285583,445.60246 -47.900653,448.065 C -73.469133,455.48589 -106.66773,468.51003 -133.21875,472.00893 C -146.95406,468.43524 -151.23695,450.55385 -145.375,438.82143 C -127.55712,384.1859 -111.30075,343.1441 -89.897323,297.12054 C -86.460013,293.4713 -72.980045,271.07022 -67.919645,270.99554 z " style="fill:url(#linearGradient8688);fill-opacity:1" id="path8635"/>
    </g>
    <g transform="matrix(0.876536,0,0,0.876536,12.02703,-5.22958)" id="g7750">
      <path d="M 501.56696,60.214286 C 475.24256,59.86993 452.35477,81.9823 449.00446,107.52679 C 446.51268,115.74465 450.73142,126.13095 444.53571,132.87054 C 435.59075,139.72037 423.3865,138.29482 412.72321,138.40179 C 393.12889,138.17507 376.70498,127.37632 359.56696,119.02679 C 349.77469,114.52942 338.17669,109.85535 327.69196,115.02679 C 315.5108,120.23792 305.95837,130.34832 298.16071,140.74554 C 291.97288,154.70478 298.70614,169.91913 299.28571,184.30804 C 303.07958,205.54128 320.83925,220.52455 338.79681,230.52154 C 357.1129,240.42212 378.21452,242.52096 398.72293,242.42559 C 426.46851,243.52307 455.81927,238.90382 482.00446,249.93304 C 498.69918,257.10927 514.65403,268.85698 523.12946,285.08929 C 523.96022,295.68557 515.21055,303.25464 510.53507,311.92472 C 499.48602,327.10768 486.60966,342.09149 470.19196,351.58929 C 462.83465,353.79201 453.29733,352.91776 449.56696,345.21429 C 442.54789,336.57702 443.33019,325.07327 439.94196,315.12054 C 435.70187,306.15587 429.65674,297.53975 421.78571,291.43304 C 412.38314,286.19988 401.93345,292.81188 396.12946,300.21429 C 390.01721,307.48946 388.78781,317.30695 389.91071,326.43304 C 387.06906,333.84939 377.53333,335.07536 372.75446,340.93304 C 364.52356,347.876 360.18304,358.79016 362.04102,369.49487 C 362.68551,382.98801 364.37722,397.95631 373.81696,408.27679 C 383.4652,416.4661 397.32564,419.96277 409.68258,417.36962 C 419.60137,414.47131 430.22746,405.90514 440.69196,411.65179 C 453.97493,417.30371 469.65092,425.23674 483.94196,418.40179 C 487.79652,416.93186 491.42073,414.82398 495.37946,413.55804 C 483.79636,471.63463 483.97138,533.35652 504.84821,589.37054 C 514.27083,616.89725 525.11841,644.01224 531.75446,672.37054 C 518.84376,665.64793 501.49619,663.32187 489.47321,673.08929 C 476.45535,680.16735 467.92921,696.78209 474.06696,711.12054 C 478.20443,721.98059 489.10658,727.94572 499.78571,730.49554 C 507.11252,733.05223 513.41441,738.57176 515.66071,746.08929 C 523.17415,759.97716 537.37333,768.8167 552.06696,773.27679 C 559.69966,778.04671 567.04183,786.16323 577.00441,784.13067 C 602.40372,784.41643 630.62703,785.23549 651.84821,769.15179 C 661.74166,760.23444 660.35641,745.11361 667.91071,734.77679 C 675.74814,733.52991 683.95264,734.26139 691.46879,731.10582 C 725.49907,721.38537 753.46691,698.18601 780.81696,676.58929 C 799.31061,660.39794 812.24583,637.15474 812.61277,612.2216 C 813.6689,594.37799 813.89668,575.1962 805.72321,558.90179 C 794.43116,538.49677 774.95274,524.32511 761.28571,505.65179 C 748.37706,491.41802 726.50537,485.71953 708.25446,491.96429 C 699.96164,494.83019 695.83783,504.9335 699.81696,512.77679 C 711.29397,534.59897 732.89085,549.11086 745.50446,570.27679 C 750.68868,578.51781 753.92825,588.57926 750.47321,598.05804 C 744.09925,616.52244 728.64397,631.60488 710.66071,638.65179 C 691.65532,646.09033 665.72268,644.36145 652.59821,626.90179 C 643.32758,613.14145 641.53064,595.92307 641.19196,579.74554 C 641.13736,562.43163 646.04071,545.77301 651.74655,529.61177 C 653.22478,522.58143 653.44783,515.1147 654.72321,508.24554 C 672.06363,509.99462 690.67845,497.52066 692.91071,479.74554 C 694.1356,466.22714 685.44924,454.13948 675.52167,445.97134 C 672.82677,442.72585 667.6371,440.22994 666.75446,435.99554 C 668.5614,429.97162 674.47471,425.99461 678.31696,421.15179 C 692.01057,408.2223 711.37298,398.25107 716.00446,378.65179 C 718.72926,368.34686 715.27361,356.92337 706.77632,350.31732 C 687.75863,330.324 667.77209,311.35015 647.41427,292.8285 C 638.02364,283.66488 631.45635,271.03215 633.06696,257.62054 C 633.0975,238.96035 640.56927,221.01588 651.81696,206.37054 C 656.5523,198.25652 653.87688,188.76826 653.66071,180.05804 C 655.37185,172.85034 662.4716,168.66523 664.62946,161.62054 C 672.70305,144.79262 671.73779,123.51843 660.03571,108.62054 C 644.99091,85.967432 610.80887,76.838418 587.86616,92.903248 C 586.02523,94.968024 583.63756,94.640211 581.87946,92.683036 C 571.6957,87.265317 559.54089,87.45091 548.62946,86.339286 C 539.28715,69.966361 520.47993,59.4406 501.56696,60.214286 z " style="fill:#ffffff;fill-opacity:1;stroke:none" id="path3267"/>
      <path d="M 566.30056,771.53188 C 558.8127,765.85341 556.99132,764.85217 547.28606,761.07938 C 535.19629,756.37964 530.45778,752.0694 523.21537,739.18418 C 516.8577,727.87305 515.0384,726.41959 500.22258,720.81501 C 487.82103,716.1237 483.9519,712.7077 482.87027,705.49486 C 482.05903,700.08511 482.96164,694.24381 485.12155,690.92564 C 487.55045,687.19423 499.19059,678.88487 503.6885,677.67155 C 509.89764,675.99663 516.45748,677.24897 527.6561,682.2472 C 533.2441,684.74128 538.61135,686.78188 539.58331,686.78188 C 543.87868,686.78188 544.45327,681.67956 538.67991,657.50962 C 535.99708,646.27805 537.1226,654.41118 525.28093,617.80219 C 511.46789,575.09862 503.35763,561.05535 499.24686,520.28188 C 498.08033,508.71147 497.29298,494.86757 497.89438,481.55318 C 499.57338,444.38177 501.26001,443.1728 503.2704,427.81179 C 504.39365,419.22925 508.5942,406.86943 505.46463,404.3998 C 501.76864,401.48318 498.46549,402.41687 485.78606,407.4917 C 470.29028,413.69375 471.37493,413.73339 452.75542,406.28452 C 442.1855,402.05594 435.09569,399.78188 432.48223,399.78188 C 430.11487,399.78188 425.10936,401.21742 420.30189,403.2751 C 415.81312,405.19638 409.67823,407.48413 406.66879,408.35899 C 401.44039,409.87893 400.87724,409.85251 394.00368,407.76473 C 382.98099,404.41669 379.78136,402.44494 377.45271,397.56533 C 374.93672,392.29315 372.69949,380.47391 371.75108,367.44368 L 372.46357,358.31977 L 378.05339,350.42688 C 380.73493,347.65723 384.43413,345.15369 388.89288,342.24442 C 398.81954,335.7674 400.34622,332.8595 400.00919,321.07091 C 399.82784,314.72749 400.16054,312.67492 401.78606,310.10872 C 404.1371,306.39713 412.12981,299.80337 414.28606,299.79655 C 416.82018,299.78855 420.83541,303.91372 426.55422,312.40063 C 431.42562,319.62994 432.10272,321.27325 432.73478,327.40063 C 433.12518,331.18532 433.80104,335.92462 434.23669,337.93241 C 435.35929,343.10627 445.40525,357.80292 449.83184,360.74721 C 453.25032,363.02097 454.32502,363.19109 463.6622,362.93641 C 475.60755,362.61059 477.7183,361.65023 489.31245,351.26591 C 514.5143,328.69381 535.8288,297.11016 533.62884,285.59824 C 530.13534,267.31756 497.52951,241.98036 469.24391,235.56628 C 460.78059,233.64713 456.63144,233.41118 429.78606,233.32245 C 392.68136,233.19981 373.23839,232.1561 362.56468,229.714 C 347.6176,226.29416 332.41582,217.08948 320.26783,204.10324 C 313.01185,196.34657 310.76909,191.85902 309.33859,182.23487 C 303.95675,146.02685 303.75269,147.95468 314.01512,138.0528 C 326.45794,126.04713 334.16206,121.99965 342.05088,123.32375 C 344.10523,123.66856 355.68606,128.88641 367.78606,134.91897 C 393.61349,147.79546 397.88041,148.91908 421.79776,149.14198 L 433.95232,148.56759 L 445.03713,145.22499 C 455.73022,139.96803 458.28606,133.34656 458.28606,118.91632 C 458.28606,98.976669 468.24169,82.434629 485.02753,74.483339 C 491.36317,71.482199 492.47759,71.281879 502.83792,71.281879 C 513.56566,71.281879 514.10822,71.390129 521.33792,74.972939 C 529.28836,78.912919 535.40353,84.434239 540.609,92.372579 L 543.82821,97.281879 L 558.80714,98.068105 C 568.54874,98.138325 569.7357,98.96558 579.39642,103.53239 C 584.83926,106.10533 584.2175,106.78188 584.99886,106.78188 C 585.78021,106.78188 587.8635,105.6805 589.62838,104.33436 C 591.39326,102.98822 595.88031,100.46281 599.59961,98.722339 C 606.06781,95.695499 606.80616,95.574739 616.57401,95.946139 C 625.49907,96.285479 627.63781,96.734569 633.54459,99.509599 C 642.92339,103.9158 650.44907,111.30941 655.0681,120.65538 C 658.71,128.02426 660.92892,133.41447 660.21463,139.01573 C 658.84213,149.77858 658.59789,151.67679 655.689,157.78188 C 653.98561,161.35688 650.95679,166.22657 648.95828,168.60341 C 643.86442,174.66158 642.7932,179.34178 644.1955,189.41209 C 645.54165,199.07911 645.31389,199.83398 637.95739,210.08741 C 626.04697,226.68806 620.74214,251.5091 624.35086,273.75172 C 626.35962,286.13291 633.17626,294.74698 659.78606,318.53053 C 668.03606,325.90429 677.93606,335.42479 681.78606,339.6872 C 685.63606,343.9496 691.21666,349.65211 694.1874,352.35945 C 702.57712,360.0053 707.28606,366.42438 707.28606,370.21513 C 707.28606,373.6453 704.58187,382.37538 701.9322,387.49927 C 701.06671,389.17295 697.30476,392.93154 693.57232,395.85168 C 679.36519,406.96688 665.33172,420.18906 660.86351,426.66956 C 653.44749,437.42541 654.47065,441.4505 667.5309,452.89902 C 672.07124,456.87904 676.78489,461.51838 678.00569,463.20865 C 680.88522,467.19557 684.4036,479.44559 682.96701,482.12989 C 682.39861,483.19196 679.36032,489.60887 674.46923,492.89764 C 669.57813,496.1864 667.408,497.23784 667.02767,497.85323 C 666.61061,498.52805 659.6167,498.8756 655.91826,498.72893 C 647.64361,498.40079 646.58734,498.55438 645.965,500.17616 C 645.67074,500.94301 644.66516,508.25551 643.7304,516.42616 C 642.42801,527.8101 641.37903,532.80093 639.24182,537.78188 C 628.24372,563.41385 628.80025,602.21465 640.51817,626.76854 C 646.35639,639.00203 658.48049,648.29302 673.28606,651.87939 C 681.04458,653.75874 698.31542,653.48597 706.22821,651.35911 C 729.45396,645.11631 747.45626,629.53309 758.58642,606.03655 C 761.49308,599.9004 761.78607,598.40484 761.78607,589.70406 C 761.78607,580.45877 761.64032,579.83384 757.58801,571.70406 C 752.7283,561.95445 747.53835,555.24098 730.26808,536.36428 C 717.30599,522.19649 708.28606,510.02717 708.28606,506.70704 C 708.28606,501.41736 716.72259,499.00006 729.07147,500.75145 C 738.96831,502.15507 746.70059,505.26634 750.01643,509.17915 C 751.53973,510.9767 762.14915,522.71311 773.5929,535.26007 C 801.1474,565.47085 802.2023,567.62342 803.00758,595.28188 C 803.76522,621.30431 800.45013,635.86521 790.09409,652.00194 C 784.51082,660.70176 770.82975,673.76027 757.23124,683.36936 C 750.9364,687.81748 740.36765,695.30194 733.74514,700.0015 C 719.02084,710.45037 711.25233,714.43319 694.21022,720.27057 C 682.81629,724.17329 679.93953,724.78188 672.88565,724.78188 C 665.31859,724.78188 664.50732,724.98689 661.61283,727.6306 C 657.44925,731.43344 655.50266,735.43348 652.67659,745.99357 C 648.68914,760.89339 646.31739,763.69896 633.55389,768.61409 C 620.46373,773.655 612.59368,774.78188 590.47826,774.78188 L 570.58614,774.78188 L 566.30056,771.53188 z " style="fill:#020201;stroke:none" id="path1491"/>
      <path d="M 577.78603,763.60749 C 572.28603,763.08439 567.11103,762.31109 566.28603,761.88909 C 565.46103,761.46719 563.95673,758.45789 562.94313,755.20189 C 559.58393,744.41169 559.23243,743.78189 556.56913,743.78189 C 555.20823,743.78189 552.79213,744.70949 551.19993,745.84319 C 546.48273,749.20219 542.13873,749.41969 538.71093,746.46869 C 536.04623,744.17459 535.78743,743.38709 535.80143,737.61389 C 535.81303,732.84089 536.36223,730.39469 538.02693,727.70119 C 540.77843,723.24909 543.91763,721.77519 550.58313,721.80579 C 558.08493,721.84009 562.81323,723.17619 568.64753,726.91019 C 577.47123,732.55739 586.40363,736.78189 589.52033,736.78189 C 593.68593,736.78189 599.35593,733.35309 602.30323,729.05189 C 606.33903,723.16199 605.74473,718.31619 599.33093,704.81689 C 595.01133,695.72539 593.87803,692.30959 593.85623,688.31689 C 593.81003,679.85639 595.01723,676.05379 598.38003,674.06729 C 600.03873,673.08749 602.71263,670.23399 604.32183,667.72619 C 605.93103,665.21839 608.38133,662.10149 609.76693,660.79989 C 611.15243,659.49829 612.28603,657.61169 612.28603,656.60759 C 612.28603,655.04719 575.71814,644.0676 570.69674,644.0676 C 568.11174,644.0676 555.57733,615.20671 547.60967,578.2853 C 539.46148,540.52735 535.54275,495.65123 540.47103,445.5299 C 545.42308,395.16689 554.98398,341.21814 564.55686,303.40298 C 573.83728,266.74315 582.28603,250.33479 582.28603,250.22038 C 582.28603,248.60884 579.28556,241.00025 572.92846,238.01561 C 564.19036,233.91313 551.35663,235.07793 546.10063,238.78188 C 531.90983,248.78221 531.24063,249.13715 526.44159,249.21 C 522.44567,249.27067 520.30951,248.45308 512.74663,243.96842 C 500.33968,236.61132 484.93496,229.24491 477.78606,227.25059 C 472.84917,225.87335 464.07851,225.43162 428.28606,224.75755 C 380.0291,223.84874 364.66767,222.50834 355.96842,218.4473 C 349.76127,215.54964 338.76649,207.84616 331.53606,201.32879 C 326.48072,196.772 324.70879,192.78188 327.74057,192.78188 C 329.90349,192.78188 340.10701,196.7982 355.28606,203.62436 C 362.71106,206.96345 371.4681,210.38988 374.74616,211.23866 C 383.29045,213.45099 397.07482,213.15753 419.68758,210.28188 C 452.07128,206.16366 477.14837,207.3922 489.28606,213.69154 C 492.31106,215.26149 498.09832,218.26958 502.14665,220.37619 C 509.01048,223.9479 510.03965,224.19504 517.39633,224.0382 C 537.26153,223.61467 562.15463,215.3635 586.59623,201.10092 C 618.74463,182.34109 627.15483,182.54082 628.93813,202.10649 C 629.44523,207.67004 629.10663,209.27266 625.52093,218.28188 C 619.09013,234.43968 616.32483,243.211 613.30793,257.01983 C 610.59183,269.45192 610.53353,270.25245 611.98773,275.15398 C 612.82453,277.97432 614.54133,282.32043 615.80303,284.81198 C 618.13833,289.42385 619.74063,291.08932 647.70953,317.97507 C 689.65813,358.29922 695.94593,365.58448 697.01923,375.10729 C 697.91873,383.08692 691.44113,391.28584 674.58083,403.50856 C 666.05553,409.68887 643.28603,430.77638 643.28603,432.4916 C 643.28603,434.60783 651.40623,445.86184 658.70503,453.86121 C 667.94163,463.98442 672.03443,469.9234 672.87983,474.43004 C 674.10223,480.94619 668.62693,485.24133 655.78603,487.83934 C 649.80473,489.04951 649.76153,489.04127 641.88623,485.18416 C 628.91493,478.83116 617.63583,465.98278 612.66263,451.8946 C 608.69313,440.64978 609.60833,435.91625 618.24983,422.99703 C 626.76363,410.26872 633.29813,403.90879 643.09263,398.81778 C 652.75683,393.79446 656.30003,389.83804 657.04373,383.23921 C 658.13363,373.57018 646.87603,357.39592 630.28603,344.79518 C 621.34103,338.00105 619.17533,336.78188 616.05183,336.78188 C 613.14353,336.78188 611.28713,338.51416 611.28293,341.23188 C 611.28123,342.35938 613.73683,348.23188 616.73983,354.28188 C 622.77463,366.43994 627.28603,380.62133 627.28603,387.43358 C 627.28603,393.67608 624.90283,397.68134 613.42563,410.72724 C 600.54263,425.371 596.91493,431.94726 596.84623,440.78188 C 596.76173,451.64272 601.15133,459.35339 620.18723,481.78188 C 630.66183,494.12338 635.37883,503.2639 636.01293,512.4487 C 636.51043,519.65538 635.63083,523.01899 627.16583,546.28188 C 623.99283,555.00141 623.87813,555.8607 623.48393,573.85552 C 622.68093,610.51321 629.85953,636.70131 644.03773,648.83731 C 648.71913,652.84439 660.72133,659.02019 667.22273,660.76729 C 669.66663,661.42399 678.87473,662.01649 687.72273,662.08629 C 706.29483,662.23289 717.21883,656.12869 731.16333,647.99519 C 749.83903,637.10203 759.08053,624.54881 763.96313,613.78044 C 767.60733,605.74346 768.28303,594.97096 768.28473,588.24198 C 768.28863,573.06977 760.17763,558.29015 740.14463,536.96619 C 727.32783,523.32346 724.36523,518.33415 726.20593,513.49262 C 727.82053,509.246 730.89933,510.0716 742.88183,517.96432 C 755.40723,526.2146 765.64973,536.19822 780.39833,554.53266 C 795.21783,572.95519 797.29663,578.25837 797.27293,597.5811 C 797.25143,615.07708 793.06643,631.23439 785.14063,644.42059 C 774.25963,662.52369 745.05433,685.48549 714.26203,700.14699 C 693.74603,709.91559 684.10483,713.06369 673.17313,713.56379 C 658.03753,714.25609 654.33693,712.78589 642.12823,701.22979 C 632.65313,692.26119 628.72303,689.77569 626.34293,691.24679 C 623.44943,693.03509 627.91733,702.04899 637.76083,714.28189 C 646.99093,725.75259 647.28603,726.36759 647.28603,734.12879 C 647.28603,743.03569 642.81103,751.89399 636.00243,756.46469 C 626.38343,762.92209 621.49623,764.11819 603.78603,764.34959 C 594.98603,764.46459 583.28603,764.13059 577.78603,763.60749 z M 507.20554,208.44994 C 504.77483,207.16738 500.58544,204.84363 497.8958,203.28606 C 487.02611,196.99142 471.63219,196.30221 432.59632,200.36251 C 413.37954,202.36133 404.17885,202.85229 391.78606,202.54018 C 376.50349,202.15529 375.29999,201.97221 364.94584,198.45712 C 351.10605,193.7587 336.24037,186.11155 329.56477,180.25651 C 319.54456,171.46797 314.27121,155.51265 318.61225,147.11799 C 322.0049,140.55733 329.6464,136.8353 339.78606,136.80463 C 347.8564,136.78022 352.4675,138.63595 368.8668,148.50814 C 386.06868,158.86347 397.02001,162.1626 413.78606,162.04024 C 426.63033,161.94651 440.98518,158.81668 452.63995,153.56882 C 460.56807,149.99898 462.19739,149.60812 467.65941,149.96578 C 472.8909,150.30834 475.028,151.1168 482.28606,155.49902 C 486.96106,158.32166 492.19283,160.91353 493.91221,161.25874 C 498.63973,162.2079 515.0117,159.04332 521.78606,155.87093 C 536.04753,149.19238 544.88813,136.71061 547.27013,119.89081 C 547.77113,116.35295 548.88843,112.75098 549.75293,111.88645 C 553.00763,108.63178 570.73033,111.26402 574.57563,115.57318 C 575.95173,117.11534 575.80433,118.15906 573.06293,126.28188 C 569.45473,136.97309 569.24883,142.69142 572.12653,152.29168 C 574.70393,160.89013 581.25963,170.22746 588.81723,176.06418 C 595.35593,181.11403 595.72183,183.31407 590.74913,187.68015 C 586.00253,191.84773 579.15473,195.22113 564.78603,200.47016 C 544.59803,207.8451 532.19823,210.77861 521.20554,210.78036 C 513.09873,210.78165 510.94519,210.42317 507.20554,208.44994 z " style="fill:#5a7931;fill-opacity:1" id="path1493"/>
      <path d="M 572.66709,667.70125 C 565.95919,665.65971 549.22819,644.21866 540.31469,626.24127 C 533.29959,612.09263 520.96569,577.07404 515.90429,556.93494 C 509.32009,530.73695 506.46502,518.06064 506.40792,485.24127 C 506.35522,454.96824 508.39359,445.8612 512.79169,423.95556 C 514.06159,417.63056 515.04145,403.70913 515.40565,397.38413 C 517.44385,361.99265 523.22679,340.76178 533.72099,314.74127 C 539.50119,300.40923 544.28609,283.67652 544.28609,277.79508 C 544.28609,276.84576 542.03609,273.26549 539.28609,269.83892 C 533.83759,263.05003 533.61539,262.28226 535.67289,257.35781 C 539.31589,248.63895 555.01589,244.95377 577.28609,247.59017 C 583.92429,248.37602 583.90429,247.1616 577.61569,267.5848 L 573.10279,282.24127 L 573.73159,295.85355 C 574.65759,315.89808 572.81119,328.53107 562.90229,369.9481 C 558.71939,387.43172 553.16579,418.60805 549.67819,444.18449 C 548.11409,455.65512 547.46709,472.37518 547.19949,508.24127 C 547.04409,529.06263 547.07819,529.42416 551.20089,550.74127 C 556.70699,579.21157 558.92579,588.46332 562.83249,599.24127 C 569.92049,618.7962 576.48819,630.68795 585.32139,639.96079 C 591.90479,646.87179 592.79839,648.88459 591.98289,654.9651 C 590.71799,664.39565 581.58729,670.4161 572.66709,667.70125 z " style="fill:#a4c67b;fill-opacity:1" id="path1495"/>
      <path d="M -540.93666 51.553547 A 8.0812206 7.323606 0 1 1  -557.0991,51.553547 A 8.0812206 7.323606 0 1 1  -540.93666 51.553547 z" transform="matrix(1.125,0,0,1.103448,953.4206,93.56774)" style="fill:#000000;fill-opacity:1;stroke:none;stroke-width:4;stroke-miterlimit:4;stroke-dasharray:none;stroke-opacity:1" id="path1503"/>
      <path d="M -540.93666 51.553547 A 8.0812206 7.323606 0 1 1  -557.0991,51.553547 A 8.0812206 7.323606 0 1 1  -540.93666 51.553547 z" transform="matrix(1.125,0,0,1.103448,978.6743,107.7099)" style="fill:#000000;fill-opacity:1;stroke:none;stroke-width:4;stroke-miterlimit:4;stroke-dasharray:none;stroke-opacity:1" id="path2380"/>
      <path d="M -328.29958 88.676651 A 31.819805 27.779196 0 1 1  -391.93919,88.676651 A 31.819805 27.779196 0 1 1  -328.29958 88.676651 z" transform="matrix(1.103175,0,0,1.254545,900.4828,3.850176)" style="fill:#ffffff;fill-opacity:1;stroke:none;stroke-width:4;stroke-miterlimit:4;stroke-dasharray:none;stroke-opacity:1" id="path2382"/>
      <path d="M -328.29958 88.676651 A 31.819805 27.779196 0 1 1  -391.93919,88.676651 A 31.819805 27.779196 0 1 1  -328.29958 88.676651 z" transform="matrix(1.103175,0,0,1.254545,1013.368,28.59896)" style="fill:#ffffff;fill-opacity:1;stroke:none;stroke-width:4;stroke-miterlimit:4;stroke-dasharray:none;stroke-opacity:1" id="path3259"/>
      <path d="M -540.93666 51.553547 A 8.0812206 7.323606 0 1 1  -557.0991,51.553547 A 8.0812206 7.323606 0 1 1  -540.93666 51.553547 z" transform="matrix(1.697303,0,0,1.872886,1443.053,27.55729)" style="fill:#000000;fill-opacity:1;stroke:none;stroke-width:4;stroke-miterlimit:4;stroke-dasharray:none;stroke-opacity:1" id="path3261"/>
      <path d="M -540.93666 51.553547 A 8.0812206 7.323606 0 1 1  -557.0991,51.553547 A 8.0812206 7.323606 0 1 1  -540.93666 51.553547 z" transform="matrix(1.697303,0,0,1.872886,1538.993,51.52255)" style="fill:#000000;fill-opacity:1;stroke:none;stroke-width:4;stroke-miterlimit:4;stroke-dasharray:none;stroke-opacity:1" id="path3265"/>
    </g>
  </g>
</svg>